# xmcd
#
# Track frame offsets: 
#        150
#        11409
#        24478
#        39761
#        48283
#        59309
#        71808
#        86024
#        100157
#        112147
#        125504
#        137739
#        149843
#        161764
#        170931
#        184888
#        195787
#        207608
#        219570
#        230453
#        243185
#        254409
#        267727
#
# Disc length: 3750 seconds
#
# Revision: 0
# Processed by: cddbd v1.5.2PL0 Copyright (c) Steve Scherf et al.
# Submitted via: ExactAudioCopy v1.0b3
#
DISCID=5e0ea417
DTITLE=Various Oldies Artistes - mix
DYEAR=1960
DGENRE=Pop
TTITLE0=hither and thider
TTITLE1=15 cents
TTITLE2=stella
TTITLE3=roses are red
TTITLE4=cant get used to your love
TTITLE5=ol man river
TTITLE6=always something there
TTITLE7=time to love and time to cry
TTITLE8=reach out for me
TTITLE9=you really got a hold on me
TTITLE10=soldier boy
TTITLE11=not a blade of grass
TTITLE12=half way to paradise
TTITLE13=bachelor boy
TTITLE14=the young ones
TTITLE15=forever
TTITLE16=someday someplace
TTITLE17=you beat me to the punch
TTITLE18=king of the road
TTITLE19=seal with a kiss
TTITLE20=ilove how you love me
TTITLE21=wovernmountain
TTITLE22=january girl
EXTD=
EXTT0=
EXTT1=
EXTT2=
EXTT3=
EXTT4=
EXTT5=
EXTT6=
EXTT7=
EXTT8=
EXTT9=
EXTT10=
EXTT11=
EXTT12=
EXTT13=
EXTT14=
EXTT15=
EXTT16=
EXTT17=
EXTT18=
EXTT19=
EXTT20=
EXTT21=
EXTT22=
PLAYORDER=
